# xmcd
#
# Track frame offsets:
#	151
#	13078
#	28485
#	41416
#	61321
#	75002
#	93177
#	107006
#	120379
#	132784
#	145791
#	165022
#	175923
#	190724
#	207627
#
# Disc length: 3008 seconds
#
# Revision: 1
# Processed by: cddbd v1.5.2PL0 Copyright (c) Steve Scherf et al.
# Submitted via: audiograbber 1.83.01
#
DISCID=b60bbe0f
DTITLE=Charlotte Bradford - The Best of - Vol. 1
DYEAR=1900
DGENRE=Country
TTITLE0=Oh Sweet America
TTITLE1=I Was Born to be Hurt
TTITLE2=Love Goes On For Generations
TTITLE3=A Gift Of Love
TTITLE4=I Believe That There Are Miracles
TTITLE5=The Midnight Sand Blues In Hawai
TTITLE6=Whiskey And Women
TTITLE7=America Blest By God's Hand
TTITLE8=Under Cover Lover
TTITLE9=Strawberries
TTITLE10=On The Edge Of Love
TTITLE11=Treasure Of Your Love
TTITLE12=Same Prayer
TTITLE13=Cut The Chase
TTITLE14=Let Your Body Talk To Me
EXTD=
EXTT0=
EXTT1=
EXTT2=
EXTT3=
EXTT4=
EXTT5=
EXTT6=
EXTT7=
EXTT8=
EXTT9=
EXTT10=
EXTT11=
EXTT12=
EXTT13=
EXTT14=
PLAYORDER=
